<svg width="34" height="34" viewBox="0 0 34 34" fill="none" xmlns="http://www.w3.org/2000/svg">
<path d="M23.9834 0.333008H10.0167C3.95004 0.333008 0.333374 3.94967 0.333374 10.0163V23.9663C0.333374 30.0497 3.95004 33.6663 10.0167 33.6663H23.9667C30.0334 33.6663 33.65 30.0497 33.65 23.983V10.0163C33.6667 3.94967 30.05 0.333008 23.9834 0.333008ZM19.9834 21.9997C20.4667 22.483 20.4667 23.283 19.9834 23.7663C19.7334 24.0163 19.4167 24.133 19.1 24.133C18.7834 24.133 18.4667 24.0163 18.2167 23.7663L12.3334 17.883C11.85 17.3997 11.85 16.5997 12.3334 16.1163L18.2167 10.233C18.7 9.74967 19.5 9.74967 19.9834 10.233C20.4667 10.7163 20.4667 11.5163 19.9834 11.9997L14.9834 16.9997L19.9834 21.9997Z" fill="#FFF4CC"/>
</svg>
